<svg xmlns="http://www.w3.org/2000/svg" viewBox="30 30 760 300" width="760" height="300" role="img" aria-label="COMENOR">
  <title>COMENOR</title>
  <defs>
    <!-- Swoosh de marca: se usa arriba (verde, cóncavo) y rotado 180° abajo (vino, convexo) -->
    <path id="trazo" d="M 57 73 C 95 61 170 45 240 45 C 300 45 365 82 416 115 C 375 115 335 115 297 115 C 230 88 135 73 57 73 Z"/>
    <!-- Letras Montserrat Bold (vectores extraídos de la presentación institucional) -->
    <path id="lC" d="M 9.203125 0.265625 C 8.003906 0.265625 6.894531 0.0703125 5.875 -0.3125 C 4.863281 -0.707031 3.984375 -1.265625 3.234375 -1.984375 C 2.484375 -2.703125 1.898438 -3.546875 1.484375 -4.515625 C 1.066406 -5.484375 0.859375 -6.546875 0.859375 -7.703125 C 0.859375 -8.859375 1.066406 -9.921875 1.484375 -10.890625 C 1.898438 -11.859375 2.484375 -12.703125 3.234375 -13.421875 C 3.992188 -14.140625 4.878906 -14.691406 5.890625 -15.078125 C 6.898438 -15.460938 8.007812 -15.65625 9.21875 -15.65625 C 10.550781 -15.65625 11.753906 -15.425781 12.828125 -14.96875 C 13.910156 -14.507812 14.816406 -13.832031 15.546875 -12.9375 L 13.265625 -10.828125 C 12.734375 -11.421875 12.144531 -11.867188 11.5 -12.171875 C 10.851562 -12.472656 10.148438 -12.625 9.390625 -12.625 C 8.671875 -12.625 8.007812 -12.503906 7.40625 -12.265625 C 6.8125 -12.035156 6.289062 -11.703125 5.84375 -11.265625 C 5.40625 -10.828125 5.066406 -10.304688 4.828125 -9.703125 C 4.585938 -9.097656 4.46875 -8.429688 4.46875 -7.703125 C 4.46875 -6.960938 4.585938 -6.289062 4.828125 -5.6875 C 5.066406 -5.09375 5.40625 -4.570312 5.84375 -4.125 C 6.289062 -3.6875 6.8125 -3.347656 7.40625 -3.109375 C 8.007812 -2.878906 8.671875 -2.765625 9.390625 -2.765625 C 10.148438 -2.765625 10.851562 -2.914062 11.5 -3.21875 C 12.144531 -3.519531 12.734375 -3.976562 13.265625 -4.59375 L 15.546875 -2.484375 C 14.816406 -1.585938 13.910156 -0.90625 12.828125 -0.4375 C 11.753906 0.0273438 10.546875 0.265625 9.203125 0.265625 Z M 9.203125 0.265625"/>
    <path id="lO" d="M 9.3125 0.265625 C 8.09375 0.265625 6.960938 0.0664062 5.921875 -0.328125 C 4.890625 -0.722656 3.992188 -1.28125 3.234375 -2 C 2.484375 -2.71875 1.898438 -3.5625 1.484375 -4.53125 C 1.066406 -5.5 0.859375 -6.554688 0.859375 -7.703125 C 0.859375 -8.847656 1.066406 -9.898438 1.484375 -10.859375 C 1.898438 -11.828125 2.488281 -12.671875 3.25 -13.390625 C 4.019531 -14.109375 4.914062 -14.664062 5.9375 -15.0625 C 6.96875 -15.457031 8.082031 -15.65625 9.28125 -15.65625 C 10.5 -15.65625 11.617188 -15.457031 12.640625 -15.0625 C 13.660156 -14.664062 14.546875 -14.109375 15.296875 -13.390625 C 16.054688 -12.671875 16.644531 -11.832031 17.0625 -10.875 C 17.488281 -9.914062 17.703125 -8.859375 17.703125 -7.703125 C 17.703125 -6.554688 17.488281 -5.492188 17.0625 -4.515625 C 16.644531 -3.546875 16.054688 -2.703125 15.296875 -1.984375 C 14.546875 -1.273438 13.660156 -0.722656 12.640625 -0.328125 C 11.617188 0.0664062 10.507812 0.265625 9.3125 0.265625 Z M 9.28125 -2.765625 C 9.96875 -2.765625 10.601562 -2.878906 11.1875 -3.109375 C 11.769531 -3.347656 12.28125 -3.6875 12.71875 -4.125 C 13.15625 -4.570312 13.492188 -5.09375 13.734375 -5.6875 C 13.984375 -6.289062 14.109375 -6.960938 14.109375 -7.703125 C 14.109375 -8.429688 13.984375 -9.097656 13.734375 -9.703125 C 13.492188 -10.304688 13.15625 -10.828125 12.71875 -11.265625 C 12.289062 -11.703125 11.78125 -12.035156 11.1875 -12.265625 C 10.601562 -12.503906 9.96875 -12.625 9.28125 -12.625 C 8.59375 -12.625 7.957031 -12.503906 7.375 -12.265625 C 6.800781 -12.035156 6.289062 -11.703125 5.84375 -11.265625 C 5.40625 -10.828125 5.066406 -10.304688 4.828125 -9.703125 C 4.585938 -9.097656 4.46875 -8.429688 4.46875 -7.703125 C 4.46875 -6.984375 4.585938 -6.316406 4.828125 -5.703125 C 5.066406 -5.097656 5.398438 -4.570312 5.828125 -4.125 C 6.265625 -3.6875 6.773438 -3.347656 7.359375 -3.109375 C 7.953125 -2.878906 8.59375 -2.765625 9.28125 -2.765625 Z M 9.28125 -2.765625"/>
    <path id="lM" d="M 1.828125 0 L 1.828125 -15.40625 L 4.78125 -15.40625 L 11.328125 -4.53125 L 9.765625 -4.53125 L 16.21875 -15.40625 L 19.140625 -15.40625 L 19.1875 0 L 15.84375 0 L 15.8125 -10.28125 L 16.4375 -10.28125 L 11.28125 -1.625 L 9.6875 -1.625 L 4.421875 -10.28125 L 5.171875 -10.28125 L 5.171875 0 Z M 1.828125 0"/>
    <path id="lE" d="M 1.828125 0 L 1.828125 -15.40625 L 13.46875 -15.40625 L 13.46875 -12.546875 L 5.375 -12.546875 L 5.375 -2.859375 L 13.75 -2.859375 L 13.75 0 Z M 5.109375 -6.421875 L 5.109375 -9.203125 L 12.515625 -9.203125 L 12.515625 -6.421875 Z M 5.109375 -6.421875"/>
    <path id="lN" d="M 1.828125 0 L 1.828125 -15.40625 L 4.78125 -15.40625 L 13.859375 -4.3125 L 12.4375 -4.3125 L 12.4375 -15.40625 L 15.953125 -15.40625 L 15.953125 0 L 13.03125 0 L 3.921875 -11.09375 L 5.34375 -11.09375 L 5.34375 0 Z M 1.828125 0"/>
    <path id="lR" d="M 1.828125 0 L 1.828125 -15.40625 L 8.40625 -15.40625 C 10.539062 -15.40625 12.203125 -14.910156 13.390625 -13.921875 C 14.585938 -12.929688 15.1875 -11.5625 15.1875 -9.8125 C 15.1875 -8.664062 14.910156 -7.675781 14.359375 -6.84375 C 13.816406 -6.019531 13.046875 -5.390625 12.046875 -4.953125 C 11.054688 -4.515625 9.867188 -4.296875 8.484375 -4.296875 L 3.8125 -4.296875 L 5.390625 -5.859375 L 5.390625 0 Z M 11.609375 0 L 7.765625 -5.59375 L 11.578125 -5.59375 L 15.46875 0 Z M 5.390625 -5.453125 L 3.8125 -7.125 L 8.296875 -7.125 C 9.390625 -7.125 10.207031 -7.363281 10.75 -7.84375 C 11.300781 -8.320312 11.578125 -8.976562 11.578125 -9.8125 C 11.578125 -10.664062 11.300781 -11.328125 10.75 -11.796875 C 10.207031 -12.265625 9.390625 -12.5 8.296875 -12.5 L 3.8125 -12.5 L 5.390625 -14.1875 Z M 5.390625 -5.453125"/>
  </defs>
  <use href="#trazo" fill="#004F4A"/>
  <use href="#trazo" fill="#B62438" transform="rotate(180 396 180.5)"/>
  <g fill="#000000">
    <use href="#lC" transform="translate(45.4 214) scale(4.156)"/>
    <use href="#lO" transform="translate(150.4 214) scale(4.156)"/>
    <use href="#lM" transform="translate(265.4 214) scale(4.156)"/>
    <use href="#lE" transform="translate(386.4 214) scale(4.156)"/>
    <use href="#lN" transform="translate(487.4 214) scale(4.156)"/>
    <use href="#lO" transform="translate(600.4 214) scale(4.156)"/>
    <use href="#lR" transform="translate(715.4 214) scale(4.156)"/>
  </g>
</svg>
